<svg xmlns="http://www.w3.org/2000/svg" viewBox="0 0 1920 1080" preserveAspectRatio="xMidYMid slice">
  <defs>
    <radialGradient id="bg" cx="50%" cy="65%" r="85%">
      <stop offset="0" stop-color="#06101a"/>
      <stop offset="35%" stop-color="#07090c"/>
      <stop offset="100%" stop-color="#000"/>
    </radialGradient>
    <radialGradient id="warmBokeh">
      <stop offset="0" stop-color="oklch(78% 0.14 245)" stop-opacity="0.55"/>
      <stop offset="35%" stop-color="oklch(70% 0.16 245)" stop-opacity="0.22"/>
      <stop offset="100%" stop-color="oklch(70% 0.16 245)" stop-opacity="0"/>
    </radialGradient>
    <radialGradient id="warmCore">
      <stop offset="0" stop-color="#eaf3ff" stop-opacity="0.95"/>
      <stop offset="20%" stop-color="oklch(85% 0.10 235)" stop-opacity="0.7"/>
      <stop offset="60%" stop-color="oklch(70% 0.16 245)" stop-opacity="0.18"/>
      <stop offset="100%" stop-color="oklch(70% 0.16 245)" stop-opacity="0"/>
    </radialGradient>
    <radialGradient id="coolBokeh">
      <stop offset="0" stop-color="oklch(85% 0.08 215)" stop-opacity="0.4"/>
      <stop offset="40%" stop-color="oklch(85% 0.08 215)" stop-opacity="0.12"/>
      <stop offset="100%" stop-color="oklch(85% 0.08 215)" stop-opacity="0"/>
    </radialGradient>
    <linearGradient id="atmosphereTop" x1="0" x2="0" y1="0" y2="1">
      <stop offset="0" stop-color="#000" stop-opacity="0.55"/>
      <stop offset="40%" stop-color="#000" stop-opacity="0"/>
    </linearGradient>
    <linearGradient id="atmosphereBottom" x1="0" x2="0" y1="0" y2="1">
      <stop offset="0" stop-color="oklch(70% 0.16 245)" stop-opacity="0"/>
      <stop offset="60%" stop-color="oklch(70% 0.16 245)" stop-opacity="0.05"/>
      <stop offset="100%" stop-color="oklch(70% 0.16 245)" stop-opacity="0.18"/>
    </linearGradient>
    <linearGradient id="hazeWash" x1="0" x2="1" y1="1" y2="0">
      <stop offset="0" stop-color="oklch(70% 0.16 245)" stop-opacity="0.12"/>
      <stop offset="50%" stop-color="oklch(70% 0.16 245)" stop-opacity="0.04"/>
      <stop offset="100%" stop-color="transparent"/>
    </linearGradient>
    <radialGradient id="floorPool" cx="50%" cy="100%" r="60%">
      <stop offset="0" stop-color="oklch(70% 0.16 245)" stop-opacity="0.32"/>
      <stop offset="100%" stop-color="oklch(70% 0.16 245)" stop-opacity="0"/>
    </radialGradient>
  </defs>

  <!-- Base atmosphere -->
  <rect width="1920" height="1080" fill="url(#bg)"/>
  <rect width="1920" height="1080" fill="url(#hazeWash)"/>

  <!-- Distant city silhouette -->
  <g opacity="0.55">
    <rect x="0"    y="780" width="120" height="300" fill="#050505"/>
    <rect x="120"  y="720" width="100" height="360" fill="#080808"/>
    <rect x="220"  y="760" width="140" height="320" fill="#050505"/>
    <rect x="360"  y="680" width="110" height="400" fill="#0a0a0a"/>
    <rect x="470"  y="730" width="120" height="350" fill="#070707"/>
    <rect x="590"  y="700" width="100" height="380" fill="#080808"/>
    <rect x="690"  y="760" width="130" height="320" fill="#050505"/>
    <rect x="820"  y="740" width="90"  height="340" fill="#070707"/>
    <rect x="910"  y="700" width="120" height="380" fill="#0a0a0a"/>
    <rect x="1030" y="760" width="110" height="320" fill="#050505"/>
    <rect x="1140" y="720" width="100" height="360" fill="#080808"/>
    <rect x="1240" y="780" width="130" height="300" fill="#050505"/>
    <rect x="1370" y="700" width="110" height="380" fill="#0a0a0a"/>
    <rect x="1480" y="740" width="120" height="340" fill="#070707"/>
    <rect x="1600" y="700" width="100" height="380" fill="#080808"/>
    <rect x="1700" y="760" width="120" height="320" fill="#050505"/>
    <rect x="1820" y="720" width="100" height="360" fill="#070707"/>
  </g>

  <!-- City windows -->
  <g fill="oklch(78% 0.14 245)">
    <rect x="40"   y="820" width="2" height="3" opacity="0.7"/>
    <rect x="55"   y="850" width="2" height="3" opacity="0.55"/>
    <rect x="75"   y="880" width="2" height="3" opacity="0.6"/>
    <rect x="92"   y="830" width="2" height="3" opacity="0.45"/>
    <rect x="135"  y="780" width="2" height="3" opacity="0.7"/>
    <rect x="155"  y="810" width="2" height="3" opacity="0.5"/>
    <rect x="175"  y="850" width="2" height="3" opacity="0.65"/>
    <rect x="195"  y="900" width="2" height="3" opacity="0.4"/>
    <rect x="240"  y="820" width="2" height="3" opacity="0.6"/>
    <rect x="265"  y="850" width="2" height="3" opacity="0.7"/>
    <rect x="290"  y="880" width="2" height="3" opacity="0.45"/>
    <rect x="320"  y="800" width="2" height="3" opacity="0.65"/>
    <rect x="375"  y="730" width="2" height="3" opacity="0.7"/>
    <rect x="395"  y="770" width="2" height="3" opacity="0.5"/>
    <rect x="415"  y="810" width="2" height="3" opacity="0.6"/>
    <rect x="435"  y="860" width="2" height="3" opacity="0.45"/>
    <rect x="455"  y="900" width="2" height="3" opacity="0.5"/>
    <rect x="490"  y="780" width="2" height="3" opacity="0.7"/>
    <rect x="510"  y="820" width="2" height="3" opacity="0.55"/>
    <rect x="530"  y="860" width="2" height="3" opacity="0.6"/>
    <rect x="555"  y="900" width="2" height="3" opacity="0.45"/>
    <rect x="600"  y="750" width="2" height="3" opacity="0.6"/>
    <rect x="625"  y="790" width="2" height="3" opacity="0.7"/>
    <rect x="645"  y="830" width="2" height="3" opacity="0.5"/>
    <rect x="665"  y="870" width="2" height="3" opacity="0.55"/>
    <rect x="700"  y="800" width="2" height="3" opacity="0.65"/>
    <rect x="725"  y="840" width="2" height="3" opacity="0.45"/>
    <rect x="745"  y="880" width="2" height="3" opacity="0.6"/>
    <rect x="775"  y="920" width="2" height="3" opacity="0.5"/>
    <rect x="830"  y="780" width="2" height="3" opacity="0.7"/>
    <rect x="855"  y="820" width="2" height="3" opacity="0.55"/>
    <rect x="880"  y="860" width="2" height="3" opacity="0.6"/>
    <rect x="920"  y="730" width="2" height="3" opacity="0.7"/>
    <rect x="945"  y="770" width="2" height="3" opacity="0.5"/>
    <rect x="970"  y="810" width="2" height="3" opacity="0.6"/>
    <rect x="995"  y="850" width="2" height="3" opacity="0.45"/>
    <rect x="1020" y="900" width="2" height="3" opacity="0.55"/>
    <rect x="1045" y="800" width="2" height="3" opacity="0.65"/>
    <rect x="1075" y="830" width="2" height="3" opacity="0.45"/>
    <rect x="1100" y="870" width="2" height="3" opacity="0.6"/>
    <rect x="1145" y="760" width="2" height="3" opacity="0.7"/>
    <rect x="1170" y="800" width="2" height="3" opacity="0.55"/>
    <rect x="1195" y="840" width="2" height="3" opacity="0.6"/>
    <rect x="1220" y="880" width="2" height="3" opacity="0.45"/>
    <rect x="1255" y="820" width="2" height="3" opacity="0.65"/>
    <rect x="1280" y="850" width="2" height="3" opacity="0.5"/>
    <rect x="1310" y="890" width="2" height="3" opacity="0.6"/>
    <rect x="1340" y="930" width="2" height="3" opacity="0.45"/>
    <rect x="1380" y="730" width="2" height="3" opacity="0.7"/>
    <rect x="1405" y="770" width="2" height="3" opacity="0.55"/>
    <rect x="1430" y="810" width="2" height="3" opacity="0.65"/>
    <rect x="1455" y="850" width="2" height="3" opacity="0.5"/>
    <rect x="1485" y="900" width="2" height="3" opacity="0.6"/>
    <rect x="1510" y="780" width="2" height="3" opacity="0.65"/>
    <rect x="1535" y="820" width="2" height="3" opacity="0.5"/>
    <rect x="1560" y="860" width="2" height="3" opacity="0.6"/>
    <rect x="1610" y="730" width="2" height="3" opacity="0.7"/>
    <rect x="1635" y="770" width="2" height="3" opacity="0.55"/>
    <rect x="1660" y="810" width="2" height="3" opacity="0.6"/>
    <rect x="1685" y="850" width="2" height="3" opacity="0.45"/>
    <rect x="1715" y="800" width="2" height="3" opacity="0.65"/>
    <rect x="1740" y="840" width="2" height="3" opacity="0.5"/>
    <rect x="1765" y="880" width="2" height="3" opacity="0.6"/>
    <rect x="1830" y="780" width="2" height="3" opacity="0.65"/>
    <rect x="1855" y="820" width="2" height="3" opacity="0.5"/>
    <rect x="1880" y="860" width="2" height="3" opacity="0.6"/>
  </g>

  <!-- Soft atmospheric bokeh — large -->
  <circle cx="320"  cy="380" r="240" fill="url(#warmBokeh)"/>
  <circle cx="1620" cy="450" r="280" fill="url(#warmBokeh)"/>
  <circle cx="1100" cy="220" r="200" fill="url(#coolBokeh)"/>
  <circle cx="180"  cy="650" r="200" fill="url(#warmBokeh)"/>
  <circle cx="1750" cy="680" r="220" fill="url(#warmBokeh)"/>

  <!-- Medium bokeh -->
  <circle cx="500"  cy="540" r="110" fill="url(#warmBokeh)"/>
  <circle cx="850"  cy="350" r="130" fill="url(#warmBokeh)"/>
  <circle cx="1280" cy="600" r="140" fill="url(#warmBokeh)"/>
  <circle cx="650"  cy="200" r="90"  fill="url(#coolBokeh)"/>
  <circle cx="1450" cy="180" r="100" fill="url(#warmBokeh)"/>

  <!-- Small bokeh -->
  <circle cx="220"  cy="260" r="55" fill="url(#warmBokeh)"/>
  <circle cx="420"  cy="180" r="45" fill="url(#warmBokeh)"/>
  <circle cx="730"  cy="450" r="60" fill="url(#warmBokeh)"/>
  <circle cx="950"  cy="580" r="50" fill="url(#warmBokeh)"/>
  <circle cx="1180" cy="380" r="55" fill="url(#coolBokeh)"/>
  <circle cx="1380" cy="450" r="60" fill="url(#warmBokeh)"/>
  <circle cx="1550" cy="320" r="50" fill="url(#warmBokeh)"/>
  <circle cx="1700" cy="200" r="40" fill="url(#warmBokeh)"/>
  <circle cx="80"   cy="450" r="40" fill="url(#warmBokeh)"/>

  <!-- Bright pinpoint lights with halos (suspended fixtures feel) -->
  <g>
    <circle cx="430"  cy="390" r="50" fill="url(#warmCore)"/>
    <circle cx="430"  cy="390" r="2.5" fill="#fff5e0"/>
    <circle cx="700"  cy="280" r="42" fill="url(#warmCore)"/>
    <circle cx="700"  cy="280" r="2"   fill="#fff5e0"/>
    <circle cx="970"  cy="430" r="55" fill="url(#warmCore)"/>
    <circle cx="970"  cy="430" r="2.5" fill="#fff5e0"/>
    <circle cx="1240" cy="320" r="45" fill="url(#warmCore)"/>
    <circle cx="1240" cy="320" r="2"   fill="#fff5e0"/>
    <circle cx="1500" cy="540" r="50" fill="url(#warmCore)"/>
    <circle cx="1500" cy="540" r="2.5" fill="#fff5e0"/>
    <circle cx="1820" cy="380" r="40" fill="url(#warmCore)"/>
    <circle cx="1820" cy="380" r="2"   fill="#fff5e0"/>
    <circle cx="270"  cy="510" r="45" fill="url(#warmCore)"/>
    <circle cx="270"  cy="510" r="2"   fill="#fff5e0"/>
  </g>

  <!-- Suspended pendant cables (subtle) -->
  <g stroke="rgba(245,244,240,0.06)" stroke-width="0.5" fill="none">
    <line x1="430"  y1="0" x2="430"  y2="390"/>
    <line x1="700"  y1="0" x2="700"  y2="280"/>
    <line x1="970"  y1="0" x2="970"  y2="430"/>
    <line x1="1240" y1="0" x2="1240" y2="320"/>
    <line x1="1500" y1="0" x2="1500" y2="540"/>
    <line x1="1820" y1="0" x2="1820" y2="380"/>
    <line x1="270"  y1="0" x2="270"  y2="510"/>
  </g>

  <!-- Vignette / overlays for legibility -->
  <rect width="1920" height="350" fill="url(#atmosphereTop)"/>
  <rect width="1920" height="1080" fill="url(#atmosphereBottom)"/>
  <ellipse cx="960" cy="1080" rx="1100" ry="220" fill="url(#floorPool)"/>
</svg>
