<svg width="108" height="40" viewBox="0 0 108 40" fill="none" xmlns="http://www.w3.org/2000/svg">
<g clip-path="url(#clip0_879_5472)">
<path d="M19.6964 5.7513C19.6 5.83974 19.4731 5.88733 19.3423 5.88401H6.86033C6.72754 5.88401 6.63902 5.92825 6.63902 6.06097V10.9271C6.63902 11.0599 6.68328 11.1041 6.86033 11.1041H14.8718C14.9375 11.0971 15.0038 11.1049 15.0661 11.1269C15.1283 11.1489 15.1848 11.1845 15.2315 11.2312C15.2782 11.2778 15.3139 11.3343 15.3359 11.3966C15.3579 11.4588 15.3657 11.5251 15.3587 11.5907V16.2357C15.3657 16.3013 15.3579 16.3677 15.3359 16.4299C15.3139 16.4921 15.2782 16.5486 15.2315 16.5952C15.1848 16.6419 15.1283 16.6775 15.0661 16.6995C15.0038 16.7215 14.9375 16.7293 14.8718 16.7223H6.86033C6.72754 16.7223 6.63902 16.7666 6.63902 16.8993V27.4722C6.64599 27.5378 6.63819 27.6041 6.61618 27.6663C6.59418 27.7285 6.55853 27.785 6.51185 27.8317C6.46517 27.8783 6.40864 27.914 6.3464 27.936C6.28416 27.9579 6.21778 27.9657 6.15213 27.9588H0.486559C0.355776 27.9621 0.228817 27.9145 0.132461 27.8261C0.0439684 27.7298 -0.00364116 27.6029 -0.00032608 27.4722V0.752405C-0.00364116 0.621693 0.0439684 0.494804 0.132461 0.398501C0.228817 0.310057 0.355776 0.262474 0.486559 0.265787H19.298C19.4288 0.262474 19.5558 0.310057 19.6521 0.398501C19.7406 0.494804 19.7882 0.621693 19.7849 0.752405V5.3974C19.8082 5.45835 19.8122 5.52497 19.7964 5.58827C19.7805 5.65156 19.7456 5.70847 19.6964 5.7513Z" fill="#2D3C4C"/>
<path d="M30.6736 6.8569V27.4718C30.6805 27.5374 30.6727 27.6038 30.6507 27.666C30.6287 27.7282 30.5931 27.7847 30.5464 27.8313C30.4997 27.878 30.4432 27.9136 30.3809 27.9356C30.3187 27.9576 30.2523 27.9654 30.1867 27.9584H24.5211C24.4555 27.9654 24.3891 27.9576 24.3268 27.9356C24.2646 27.9136 24.2081 27.878 24.1614 27.8313C24.1147 27.7847 24.0791 27.7282 24.057 27.666C24.035 27.6038 24.0272 27.5374 24.0342 27.4718V12.2097C24.0342 11.5904 24.1227 11.2807 24.5211 10.971C25.9375 9.82084 29.5227 6.90114 30.0539 6.45876C30.3637 6.23757 30.6736 6.32604 30.6736 6.8569Z" fill="#96A5AE"/>
<path d="M50.7686 27.6043L46.0768 17.0757C46.0579 17.0298 46.0277 16.9895 45.989 16.9586C45.9503 16.9276 45.9043 16.907 45.8555 16.8987H43.244C43.1112 16.8987 43.0227 16.943 43.0227 17.0757V27.4274C43.0296 27.493 43.0218 27.5593 42.9998 27.6215C42.9778 27.6837 42.9422 27.7402 42.8955 27.7869C42.8488 27.8335 42.7923 27.8692 42.7301 27.8912C42.6678 27.9132 42.6014 27.921 42.5358 27.914H36.8702C36.8046 27.921 36.7382 27.9132 36.676 27.8912C36.6137 27.8692 36.5572 27.8335 36.5105 27.7869C36.4638 27.7402 36.4282 27.6837 36.4062 27.6215C36.3842 27.5593 36.3764 27.493 36.3833 27.4274V0.751859C36.38 0.621147 36.4276 0.494258 36.5161 0.397955C36.6125 0.309511 36.7394 0.261927 36.8702 0.265241H48.6883C50.2874 0.228329 51.8703 0.593398 53.2915 1.32695C54.5872 2.01793 55.6613 3.0607 56.3899 4.33514C57.1279 5.70813 57.5084 7.24464 57.4964 8.80317C57.5383 10.4368 57.0746 12.0436 56.1686 13.4039C55.276 14.7038 53.9876 15.6812 52.4948 16.1909C52.4665 16.1961 52.4398 16.2078 52.4168 16.2251C52.3938 16.2424 52.3751 16.2648 52.3622 16.2906C52.3493 16.3163 52.3426 16.3447 52.3426 16.3734C52.3426 16.4022 52.3492 16.4306 52.362 16.4564L57.6292 27.3389C57.6704 27.4074 57.7003 27.4821 57.7178 27.5601C57.7178 27.7813 57.585 27.8698 57.2751 27.8698H51.2997C51.0342 28.0025 50.8571 27.8698 50.7686 27.6043ZM42.9784 6.10466V11.7229C42.9784 11.8556 43.0227 11.8998 43.1997 11.8998H47.626C48.4934 11.9362 49.344 11.6529 50.0161 11.1036C50.3259 10.8368 50.5706 10.5028 50.7317 10.1272C50.8928 9.75152 50.966 9.34408 50.9456 8.93589C50.9659 8.52121 50.8929 8.10727 50.7321 7.72449C50.5712 7.34171 50.3266 6.99983 50.0161 6.72399C49.3597 6.14276 48.5019 5.84111 47.626 5.88347H43.1997C43.0669 5.9277 42.9784 5.97194 42.9784 6.10466Z" fill="#2D3C4C"/>
<path d="M66.6144 27.2506C65.0844 26.6314 63.7635 25.5876 62.8079 24.2424C61.9208 22.9062 61.4579 21.3335 61.48 19.7301V18.9781C61.473 18.9124 61.4808 18.8461 61.5028 18.7839C61.5249 18.7217 61.5605 18.6652 61.6072 18.6185C61.6539 18.5719 61.7104 18.5362 61.7726 18.5143C61.8349 18.4923 61.9013 18.4845 61.9669 18.4914H67.4997C67.5653 18.4845 67.6317 18.4923 67.694 18.5143C67.7562 18.5362 67.8127 18.5719 67.8594 18.6185C67.9061 18.6652 67.9417 18.7217 67.9637 18.7839C67.9857 18.8461 67.9935 18.9124 67.9866 18.9781V19.4647C67.9986 19.9224 68.1268 20.3695 68.359 20.7641C68.5913 21.1587 68.92 21.4879 69.3144 21.7208C70.1997 22.3844 71.3505 22.694 72.8554 22.694C73.7872 22.7571 74.7115 22.4909 75.4669 21.942C75.7299 21.738 75.9426 21.4764 76.0884 21.1772C76.2342 20.8781 76.3093 20.5495 76.3079 20.2167C76.3163 19.9813 76.2775 19.7465 76.1939 19.5262C76.1103 19.3059 75.9835 19.1045 75.821 18.9338C75.4268 18.5836 74.9784 18.2997 74.4931 18.0933C73.9177 17.8721 73.0767 17.5624 71.8817 17.1643C71.7271 17.086 71.5636 17.0266 71.3948 16.9873C71.2177 16.9431 71.0849 16.8989 70.9521 16.8546C69.4032 16.3659 67.8939 15.7596 66.4374 15.0409C65.1667 14.3833 64.0503 13.4635 63.162 12.3424C62.2386 11.1218 61.7551 9.62525 61.7899 8.0955C61.7666 6.56733 62.2148 5.06908 63.0735 3.80442C63.9768 2.54097 65.2199 1.55929 66.6587 0.973186C70.1272 -0.368818 73.9801 -0.321278 77.4144 1.1059C78.9664 1.77282 80.3004 2.86089 81.2653 4.2468C82.1993 5.61274 82.6793 7.23788 82.6374 8.89179V9.46688C82.6444 9.53249 82.6366 9.59883 82.6146 9.66104C82.5926 9.72325 82.5569 9.77975 82.5102 9.8264C82.4636 9.87306 82.407 9.90869 82.3448 9.93068C82.2825 9.95267 82.2162 9.96047 82.1505 9.9535H76.6177C76.5521 9.96047 76.4857 9.95267 76.4235 9.93068C76.3612 9.90869 76.3047 9.87306 76.258 9.8264C76.2113 9.77975 76.1757 9.72325 76.1537 9.66104C76.1317 9.59883 76.1239 9.53249 76.1308 9.46688V9.20145C76.124 8.72821 76.0088 8.26281 75.7939 7.84103C75.5791 7.41925 75.2704 7.05229 74.8915 6.76836C73.949 6.02631 72.7702 5.64929 71.5718 5.70665C70.7168 5.66645 69.8692 5.88209 69.1374 6.32598C68.8569 6.52671 68.6297 6.79279 68.4755 7.10115C68.3212 7.40951 68.2445 7.75083 68.2521 8.0955C68.2428 8.36526 68.2891 8.63407 68.388 8.8852C68.487 9.13634 68.6366 9.36445 68.8276 9.55536C69.3131 10.0379 69.904 10.4014 70.5538 10.6171C71.3505 10.9267 72.5456 11.3691 74.139 11.9C75.6168 12.3743 77.0653 12.9356 78.4767 13.581C79.5976 14.1401 80.5919 14.9231 81.398 15.8814C82.3276 16.9431 82.7702 18.3587 82.7702 20.084C82.8126 21.6626 82.3472 23.2132 81.4423 24.5078C80.5073 25.7873 79.2356 26.7827 77.7685 27.3833C76.0109 28.0888 74.1295 28.4347 72.2358 28.4007C70.3076 28.3617 68.4028 27.972 66.6144 27.2506Z" fill="#2D3C4C"/>
<path d="M107.867 0.442739C107.956 0.539042 108.003 0.665931 108 0.796643V5.48587C108.007 5.55148 107.999 5.61782 107.977 5.68003C107.955 5.74224 107.919 5.79874 107.873 5.84539C107.826 5.89205 107.77 5.92768 107.707 5.94967C107.645 5.97166 107.579 5.97946 107.513 5.97249H100.52C100.387 5.97249 100.298 6.01673 100.298 6.14944V27.5164C100.305 27.582 100.297 27.6483 100.275 27.7106C100.253 27.7728 100.218 27.8293 100.171 27.8759C100.124 27.9226 100.068 27.9582 100.006 27.9802C99.9434 28.0022 99.877 28.01 99.8114 28.003H94.1901C94.1244 28.01 94.0581 28.0022 93.9958 27.9802C93.9336 27.9582 93.877 27.9226 93.8304 27.8759C93.7837 27.8293 93.748 27.7728 93.726 27.7106C93.704 27.6483 93.6962 27.582 93.7032 27.5164V6.14944C93.7032 6.01673 93.6147 5.97249 93.4819 5.97249H86.754C86.6884 5.97946 86.622 5.97166 86.5597 5.94967C86.4975 5.92768 86.441 5.89205 86.3943 5.84539C86.3476 5.79874 86.312 5.74224 86.29 5.68003C86.268 5.61782 86.2602 5.55148 86.2671 5.48587V0.752405C86.2638 0.621693 86.3114 0.494804 86.3999 0.398501C86.4963 0.310057 86.6232 0.262474 86.754 0.265787H107.469C107.612 0.297446 107.748 0.357626 107.867 0.442739Z" fill="#2D3C4C"/>
<path d="M24.3442 5.70638L30.6294 0.574768C30.6553 0.552747 30.6742 0.523757 30.684 0.491258C30.6939 0.458758 30.6941 0.42412 30.6848 0.391476C30.6755 0.358832 30.6569 0.329561 30.6314 0.307153C30.6059 0.284745 30.5745 0.270148 30.5409 0.265102H24.2999C24.2703 0.263147 24.2407 0.267528 24.2129 0.277953C24.1852 0.288377 24.16 0.304604 24.1391 0.325546C24.1181 0.346489 24.1019 0.371665 24.0914 0.399387C24.081 0.427109 24.0766 0.456739 24.0786 0.486292V5.52942C24.0786 5.70638 24.2114 5.79485 24.3442 5.70638Z" fill="#E62E36"/>
<path d="M41.7217 36.8237V37.1909C41.7217 37.2882 41.6774 37.3369 41.58 37.3369H37.8266C37.7867 37.3369 37.7646 37.3369 37.7646 37.3944C37.7731 37.579 37.8104 37.7611 37.8753 37.9341C38.0656 38.5048 38.5303 38.8188 39.2739 38.8188C39.5275 38.8246 39.7784 38.7665 40.0036 38.6497C40.2287 38.533 40.4207 38.3614 40.562 38.1509C40.5736 38.129 40.5907 38.1105 40.6117 38.0973C40.6327 38.0841 40.6567 38.0766 40.6815 38.0756C40.6976 38.0758 40.7134 38.0794 40.7279 38.0863C40.7424 38.0932 40.7553 38.1031 40.7656 38.1155L41.5092 38.7215C41.525 38.7308 41.5386 38.7434 41.5491 38.7584C41.5597 38.7735 41.5669 38.7906 41.5702 38.8086C41.5736 38.8266 41.573 38.8451 41.5686 38.8629C41.5642 38.8807 41.556 38.8974 41.5446 38.9117C41.2949 39.2669 40.9539 39.5482 40.5575 39.7257C40.1282 39.9204 39.6613 40.0186 39.1898 40.0133C38.6298 40.0236 38.0789 39.8698 37.6053 39.5709C37.1714 39.2932 36.8379 38.8839 36.6536 38.403C36.4501 37.836 36.357 37.2354 36.3792 36.6335C36.3677 36.2536 36.417 35.8742 36.5253 35.5098C36.6608 34.9798 36.9731 34.5116 37.4105 34.1827C37.8769 33.853 38.4372 33.6823 39.0084 33.6961C40.5797 33.6961 41.4605 34.5189 41.6641 36.1557C41.7024 36.3763 41.7217 36.5998 41.7217 36.8237ZM38.2869 35.1073C38.0878 35.2633 37.9436 35.4787 37.8753 35.7222C37.8206 35.8928 37.7879 36.0697 37.7779 36.2486C37.7779 36.2884 37.7779 36.3106 37.8266 36.3106H40.2521C40.2604 36.3112 40.2688 36.3101 40.2766 36.3072C40.2844 36.3043 40.2915 36.2998 40.2974 36.2939C40.3033 36.288 40.3079 36.2809 40.3108 36.2731C40.3136 36.2653 40.3148 36.2569 40.3141 36.2486C40.3046 36.0989 40.2794 35.9507 40.2389 35.8062C40.1755 35.5381 40.0185 35.3012 39.7962 35.1382C39.5662 34.9725 39.2873 34.8884 39.0039 34.8994C38.7488 34.8897 38.4973 34.9626 38.2869 35.1073Z" fill="#96A5AE"/>
<path d="M43.5097 39.849C43.4952 39.8364 43.4836 39.8208 43.476 39.8032C43.4683 39.7856 43.4647 39.7664 43.4654 39.7473V31.6738C43.4647 31.6546 43.4683 31.6355 43.476 31.6179C43.4836 31.6003 43.4952 31.5846 43.5097 31.5721C43.5232 31.559 43.5391 31.5488 43.5566 31.542C43.5741 31.5351 43.5927 31.5318 43.6115 31.5323H44.7048C44.7235 31.5318 44.7422 31.5351 44.7597 31.542C44.7771 31.5488 44.7931 31.559 44.8066 31.5721C44.8341 31.5989 44.8501 31.6354 44.8508 31.6738V39.7473C44.8497 39.7856 44.834 39.8221 44.8068 39.8493C44.7797 39.8764 44.7432 39.8921 44.7048 39.8932H43.6115C43.573 39.8925 43.5365 39.8766 43.5097 39.849Z" fill="#96A5AE"/>
<path d="M51.9991 36.8237V37.1908C51.9991 37.2882 51.9548 37.3368 51.8575 37.3368H48.1173C48.0775 37.3368 48.0553 37.3368 48.0553 37.3943C48.0638 37.5789 48.1011 37.761 48.166 37.934C48.3563 38.5047 48.8211 38.8188 49.5647 38.8188C49.8182 38.8246 50.0692 38.7664 50.2943 38.6496C50.5194 38.5329 50.7114 38.3613 50.8527 38.1508C50.8643 38.1289 50.8814 38.1104 50.9024 38.0972C50.9234 38.084 50.9474 38.0766 50.9722 38.0756C50.9883 38.0757 51.0041 38.0794 51.0186 38.0862C51.0332 38.0931 51.046 38.1031 51.0563 38.1154L51.7866 38.7082C51.8024 38.7175 51.8161 38.7301 51.8266 38.7451C51.8371 38.7601 51.8443 38.7772 51.8477 38.7952C51.851 38.8133 51.8505 38.8318 51.846 38.8496C51.8416 38.8674 51.8334 38.884 51.822 38.8984C51.5723 39.2536 51.2313 39.5348 50.835 39.7124C50.4056 39.9071 49.9387 40.0053 49.4673 39.9999C48.9072 40.0103 48.3563 39.8565 47.8827 39.5576C47.4475 39.2877 47.1096 38.8864 46.9178 38.4118C46.7143 37.8448 46.6211 37.2442 46.6434 36.6423C46.6319 36.2623 46.6812 35.883 46.7894 35.5186C46.925 34.9885 47.2372 34.5204 47.6747 34.1915C48.1411 33.8617 48.7014 33.6911 49.2725 33.7049C50.8438 33.7049 51.7247 34.5277 51.9283 36.1645C51.9705 36.3818 51.9942 36.6023 51.9991 36.8237ZM48.5643 35.1072C48.3652 35.2633 48.2211 35.4787 48.1527 35.7221C48.0981 35.8928 48.0653 36.0697 48.0553 36.2486C48.0553 36.2884 48.0553 36.3105 48.104 36.3105H50.5296C50.5379 36.3112 50.5462 36.31 50.5541 36.3071C50.5619 36.3043 50.569 36.2997 50.5749 36.2938C50.5808 36.2879 50.5853 36.2808 50.5882 36.273C50.5911 36.2652 50.5922 36.2569 50.5916 36.2486C50.5799 36.0991 50.5547 35.9511 50.5163 35.8062C50.4529 35.538 50.296 35.3012 50.0737 35.1382C49.8437 34.9724 49.5648 34.8883 49.2814 34.8993C49.0262 34.8897 48.7747 34.9626 48.5643 35.1072Z" fill="#96A5AE"/>
<path d="M55.0932 33.7672C55.1448 33.7672 55.1944 33.7877 55.2309 33.8242C55.2674 33.8607 55.2879 33.9102 55.2879 33.9618V36.0985H55.5624C55.6411 36.1023 55.7197 36.0887 55.7925 36.0587C55.8627 36.0197 55.9244 35.9671 55.974 35.9039L57.4966 34.0238C57.5577 33.9486 57.631 33.8843 57.7135 33.8335C57.8042 33.7837 57.9066 33.7593 58.0101 33.7628H59.3601L57.4568 36.041C57.3906 36.1218 57.3196 36.1986 57.2443 36.271C57.1747 36.34 57.0975 36.4009 57.0142 36.4524C57.0973 36.5111 57.1717 36.5811 57.2355 36.6603L57.4258 36.9169L59.4707 39.8941H58.1428C58.0405 39.8969 57.9389 39.8757 57.8463 39.8322C57.7581 39.7852 57.6846 39.7147 57.6338 39.6287L56.0714 37.3062C56.0306 37.2314 55.9692 37.17 55.8943 37.1293C55.8087 37.0946 55.7165 37.0795 55.6243 37.085H55.2924V39.6995C55.2924 39.7511 55.2718 39.8006 55.2353 39.8371C55.1988 39.8736 55.1493 39.8941 55.0976 39.8941H53.9999C53.949 39.893 53.9006 39.872 53.865 39.8356C53.8295 39.7992 53.8096 39.7504 53.8096 39.6995V33.9486C53.8096 33.8977 53.8295 33.8488 53.865 33.8125C53.9006 33.7761 53.949 33.7551 53.9999 33.7539L55.0932 33.7672Z" fill="#96A5AE"/>
<path d="M64.0121 34.8684C63.9993 34.8827 63.9836 34.894 63.966 34.9017C63.9485 34.9093 63.9295 34.9131 63.9103 34.9126H62.6887C62.6488 34.9126 62.6311 34.9126 62.6311 34.9702V37.85C62.61 38.0851 62.6797 38.3194 62.8259 38.5048C62.9115 38.5793 63.0113 38.6358 63.1193 38.6708C63.2273 38.7058 63.3413 38.7185 63.4544 38.7083H63.8129C63.8321 38.7076 63.8512 38.7112 63.8689 38.7188C63.8865 38.7265 63.9021 38.738 63.9147 38.7525C63.9278 38.766 63.938 38.7819 63.9449 38.7994C63.9517 38.8169 63.955 38.8355 63.9546 38.8543V39.739C63.9564 39.7587 63.9541 39.7785 63.9478 39.7973C63.9416 39.816 63.9314 39.8332 63.9181 39.8478C63.9047 39.8624 63.8885 39.874 63.8704 39.882C63.8523 39.8899 63.8327 39.8939 63.8129 39.8938H63.1932C62.7009 39.9294 62.2092 39.8169 61.7813 39.5709C61.6096 39.4214 61.4766 39.2328 61.3934 39.0211C61.3102 38.8093 61.2792 38.5806 61.3032 38.3544V34.948C61.3032 34.9082 61.2811 34.8905 61.2413 34.8905H60.5641C60.5257 34.8894 60.4892 34.8737 60.462 34.8465C60.4349 34.8194 60.4191 34.7829 60.418 34.7445V33.9306C60.4176 33.9114 60.4213 33.8924 60.429 33.8748C60.4366 33.8573 60.448 33.8416 60.4623 33.8288C60.4757 33.8158 60.4917 33.8055 60.5092 33.7987C60.5266 33.7919 60.5453 33.7886 60.5641 33.789H61.2413C61.2496 33.7897 61.2579 33.7885 61.2658 33.7856C61.2736 33.7828 61.2807 33.7782 61.2866 33.7723C61.2925 33.7665 61.297 33.7594 61.2999 33.7515C61.3028 33.7437 61.3039 33.7354 61.3032 33.7271V32.3291C61.3026 32.311 61.3059 32.293 61.3127 32.2762C61.3196 32.2594 61.3299 32.2443 61.3431 32.2318C61.3558 32.2175 61.3716 32.2062 61.3891 32.1986C61.4067 32.1909 61.4257 32.1872 61.4449 32.1876H62.485C62.5042 32.1869 62.5234 32.1905 62.541 32.1981C62.5586 32.2058 62.5743 32.2173 62.5868 32.2318C62.6013 32.2435 62.6128 32.2584 62.6205 32.2753C62.6282 32.2922 62.6318 32.3106 62.6311 32.3291V33.7271C62.6311 33.7669 62.6311 33.789 62.6887 33.789H63.9103C63.9291 33.7884 63.9478 33.7916 63.9652 33.7985C63.9827 33.8054 63.9985 33.8158 64.0118 33.8291C64.0251 33.8424 64.0355 33.8582 64.0424 33.8757C64.0493 33.8931 64.0526 33.9118 64.0519 33.9306V34.7667C64.0524 34.7854 64.0491 34.8041 64.0422 34.8215C64.0354 34.839 64.0251 34.8549 64.0121 34.8684Z" fill="#96A5AE"/>
<path d="M69.2748 33.8727C69.3058 33.8889 69.3301 33.9156 69.3431 33.9481C69.356 33.9805 69.3569 34.0166 69.3456 34.0497L69.142 35.1247C69.142 35.222 69.08 35.2485 68.9738 35.2087C68.839 35.1676 68.6986 35.1482 68.5577 35.1512H68.3187C68.0053 35.16 67.7066 35.2863 67.4821 35.5051C67.37 35.6164 67.2822 35.7498 67.2243 35.8967C67.1664 36.0437 67.1397 36.2011 67.1457 36.3589V39.7387C67.1462 39.7574 67.1429 39.7761 67.136 39.7936C67.1292 39.811 67.119 39.827 67.1059 39.8404C67.0791 39.868 67.0425 39.8839 67.0041 39.8847H65.902C65.8836 39.8845 65.8654 39.8804 65.8486 39.8728C65.8319 39.8652 65.8169 39.8542 65.8046 39.8404C65.7901 39.8279 65.7786 39.8122 65.7709 39.7946C65.7632 39.777 65.7596 39.7579 65.7603 39.7387V33.9302C65.7599 33.9111 65.7637 33.8921 65.7713 33.8745C65.779 33.857 65.7903 33.8413 65.8046 33.8285C65.8171 33.8154 65.8322 33.805 65.849 33.7982C65.8658 33.7913 65.8839 33.7881 65.902 33.7887H67.0041C67.0229 33.7882 67.0415 33.7915 67.059 33.7984C67.0765 33.8052 67.0924 33.8154 67.1059 33.8285C67.1319 33.856 67.1461 33.8924 67.1457 33.9302V34.4699C67.1457 34.5009 67.1457 34.5186 67.1457 34.523C67.1457 34.5275 67.1723 34.523 67.19 34.4921C67.3343 34.2474 67.5421 34.0462 67.7915 33.9099C68.0408 33.7736 68.3224 33.7073 68.6064 33.7179C68.8388 33.7113 69.069 33.7646 69.2748 33.8727Z" fill="#96A5AE"/>
<path d="M71.5855 39.5089C71.1317 39.1833 70.7986 38.7166 70.6383 38.1818C70.3758 37.2939 70.3758 36.349 70.6383 35.4611C70.7993 34.9313 71.1367 34.4725 71.5944 34.1605C72.0786 33.8386 72.6508 33.6748 73.2321 33.6916C73.7922 33.6783 74.3422 33.8425 74.8034 34.1605C75.2485 34.4756 75.5781 34.9278 75.7418 35.4478C75.8922 35.886 75.9642 36.3472 75.9542 36.8104C75.96 37.2722 75.8928 37.732 75.755 38.1729C75.5912 38.706 75.2588 39.1717 74.8078 39.5001C74.3433 39.8264 73.7864 39.9954 73.2188 39.9822C72.6379 40.0019 72.0658 39.8361 71.5855 39.5089ZM73.9668 38.5401C74.1817 38.3553 74.3359 38.1102 74.4095 37.8367C74.4972 37.5094 74.5374 37.1712 74.529 36.8325C74.5407 36.4951 74.5004 36.1579 74.4095 35.8327C74.3429 35.5574 74.1873 35.3117 73.9668 35.1338C73.7393 34.9655 73.4619 34.8782 73.179 34.886C72.9031 34.8798 72.6332 34.9671 72.4132 35.1338C72.1884 35.311 72.0269 35.5562 71.9529 35.8327C71.7936 36.4912 71.7936 37.1782 71.9529 37.8367C72.0199 38.1156 72.1811 38.363 72.4093 38.537C72.6374 38.7111 72.9186 38.8012 73.2055 38.7922C73.4809 38.7991 73.7501 38.7099 73.9668 38.5401Z" fill="#96A5AE"/>
<path d="M82.2126 34.2665C82.411 34.4742 82.5647 34.7203 82.6645 34.9896C82.7642 35.2589 82.8077 35.5458 82.7924 35.8325V39.7476C82.7913 39.7859 82.7756 39.8224 82.7484 39.8496C82.7213 39.8767 82.6847 39.8925 82.6464 39.8936H81.5487C81.5102 39.8928 81.4736 39.8769 81.4468 39.8493C81.4323 39.8368 81.4208 39.8211 81.4131 39.8035C81.4055 39.7859 81.4019 39.7668 81.4026 39.7476V36.1156C81.4156 35.7921 81.3048 35.4757 81.0928 35.2309C80.9882 35.1181 80.8605 35.0293 80.7184 34.9705C80.5763 34.9117 80.4232 34.8844 80.2695 34.8902C80.1149 34.8848 79.961 34.9119 79.8176 34.9699C79.6742 35.0278 79.5447 35.1152 79.4373 35.2265C79.2209 35.469 79.1081 35.7866 79.1231 36.1112V39.752C79.122 39.7904 79.1062 39.8269 79.0791 39.854C79.0519 39.8811 79.0154 39.8969 78.977 39.898H77.9014C77.8631 39.8969 77.8265 39.8811 77.7994 39.854C77.7722 39.8269 77.7565 39.7904 77.7554 39.752V33.9303C77.7566 33.892 77.7724 33.8556 77.7996 33.8285C77.8131 33.8155 77.8291 33.8052 77.8465 33.7984C77.864 33.7916 77.8827 33.7883 77.9014 33.7887H78.9991C79.0179 33.7883 79.0366 33.7916 79.054 33.7984C79.0715 33.8052 79.0875 33.8155 79.1009 33.8285C79.1281 33.8556 79.144 33.892 79.1452 33.9303V34.3152C79.1452 34.3373 79.1452 34.355 79.1673 34.3594C79.1895 34.3638 79.1939 34.3594 79.2028 34.3594C79.3808 34.1417 79.6082 33.9696 79.866 33.8573C80.1239 33.745 80.4048 33.6957 80.6855 33.7135C80.964 33.6999 81.2425 33.7417 81.5046 33.8367C81.7668 33.9316 82.0075 34.0777 82.2126 34.2665Z" fill="#96A5AE"/>
<path d="M84.895 32.7357C84.7446 32.595 84.648 32.4063 84.6219 32.2021C84.5958 31.9978 84.6417 31.7909 84.7518 31.6169C84.862 31.4429 85.0293 31.3127 85.2252 31.2488C85.421 31.1849 85.633 31.1912 85.8246 31.2667C86.0163 31.3422 86.1756 31.4821 86.2751 31.6624C86.3746 31.8427 86.4081 32.052 86.3698 32.2543C86.3315 32.4566 86.2238 32.6392 86.0653 32.7707C85.9068 32.9022 85.7074 32.9743 85.5014 32.9746C85.3894 32.9779 85.2779 32.9584 85.1737 32.9173C85.0694 32.8763 84.9746 32.8145 84.895 32.7357ZM84.8286 39.8713C84.801 39.8445 84.7851 39.808 84.7843 39.7696V33.9213C84.7851 33.8829 84.801 33.8463 84.8286 33.8195C84.8412 33.805 84.8568 33.7935 84.8745 33.7859C84.8921 33.7782 84.9112 33.7746 84.9304 33.7753H86.0281C86.0473 33.7746 86.0664 33.7782 86.084 33.7859C86.1016 33.7935 86.1173 33.805 86.1299 33.8195C86.1575 33.8463 86.1734 33.8829 86.1742 33.9213V39.7474C86.173 39.7858 86.1573 39.8223 86.1301 39.8494C86.103 39.8766 86.0665 39.8923 86.0281 39.8934H84.9304C84.892 39.8926 84.8554 39.8767 84.8286 39.8492V39.8713Z" fill="#96A5AE"/>
<path d="M89.6444 33.7666C89.6808 33.7666 89.7157 33.7811 89.7414 33.8068C89.7671 33.8325 89.7816 33.8674 89.7816 33.9037V36.1156H90.056C90.1362 36.1194 90.2162 36.1058 90.2906 36.0758C90.3593 36.0365 90.4195 35.9838 90.4677 35.921L91.9947 34.0409C92.0542 33.9659 92.1261 33.9016 92.2072 33.8507C92.2995 33.8009 92.4033 33.7765 92.5081 33.7799H93.8582L91.9504 36.0581C91.8856 36.1388 91.8162 36.2156 91.7424 36.2882C91.6712 36.3572 91.5926 36.418 91.5078 36.4695C91.5919 36.527 91.6665 36.5972 91.7291 36.6775C91.7911 36.7571 91.8575 36.8456 91.9195 36.934L93.9644 39.9113H92.6365C92.5356 39.9137 92.4356 39.8925 92.3444 39.8493C92.2557 39.8013 92.181 39.7312 92.1275 39.6458L90.5695 37.3233C90.5275 37.2479 90.4644 37.1864 90.388 37.1464C90.3041 37.1113 90.2132 37.0962 90.1224 37.1021H89.786V39.7564C89.786 39.7928 89.7716 39.8277 89.7458 39.8534C89.7201 39.8791 89.6852 39.8936 89.6488 39.8936H88.4449C88.4271 39.8936 88.4094 39.89 88.393 39.8831C88.3766 39.8761 88.3618 39.8659 88.3494 39.8531C88.337 39.8403 88.3273 39.8252 88.3209 39.8086C88.3145 39.792 88.3115 39.7742 88.3121 39.7564V33.9037C88.3115 33.8859 88.3145 33.8682 88.3209 33.8516C88.3273 33.835 88.337 33.8198 88.3494 33.807C88.3618 33.7942 88.3766 33.7841 88.393 33.7771C88.4094 33.7702 88.4271 33.7666 88.4449 33.7666H89.6444Z" fill="#96A5AE"/>
<path d="M96.257 39.7436C95.9123 39.6235 95.6065 39.4126 95.3717 39.1331C95.1642 38.8857 95.0541 38.5711 95.0619 38.2484V38.1422C95.0615 38.1235 95.0648 38.1048 95.0716 38.0873C95.0785 38.0699 95.0887 38.0539 95.1017 38.0405C95.1292 38.0145 95.1657 38.0002 95.2036 38.0006H96.257C96.2948 38.0002 96.3313 38.0145 96.3588 38.0405C96.3719 38.0539 96.3821 38.0699 96.3889 38.0873C96.3958 38.1048 96.3991 38.1235 96.3986 38.1422C96.4042 38.2499 96.4372 38.3544 96.4945 38.4458C96.5518 38.5371 96.6316 38.6123 96.7262 38.6642C96.9756 38.8186 97.2651 38.8956 97.5583 38.8854C97.832 38.8975 98.1031 38.8282 98.3373 38.6863C98.4255 38.6365 98.4992 38.5647 98.5512 38.4778C98.6031 38.3909 98.6316 38.2921 98.6339 38.1909C98.637 38.1062 98.6157 38.0224 98.5725 37.9495C98.5294 37.8765 98.4662 37.8175 98.3904 37.7795C98.1367 37.6526 97.8694 37.5546 97.5937 37.4875L97.1511 37.3459C96.7971 37.2468 96.4521 37.1181 96.1198 36.9611C95.8466 36.832 95.606 36.6429 95.416 36.4081C95.2212 36.155 95.1196 35.8425 95.1283 35.5233C95.1212 35.2651 95.1777 35.009 95.2927 34.7776C95.4076 34.5463 95.5777 34.3466 95.7878 34.1962C96.294 33.8443 96.9026 33.6701 97.5185 33.7007C97.956 33.691 98.391 33.7692 98.7977 33.9307C99.1353 34.0633 99.4294 34.2869 99.6475 34.5766C99.8451 34.849 99.9492 35.178 99.944 35.5145C99.9447 35.5332 99.9414 35.5519 99.9345 35.5694C99.9276 35.5868 99.9172 35.6027 99.9039 35.6159C99.8907 35.6292 99.8748 35.6396 99.8573 35.6465C99.8399 35.6534 99.8212 35.6566 99.8024 35.656H98.7844C98.7662 35.6566 98.7482 35.6534 98.7314 35.6466C98.7146 35.6397 98.6995 35.6294 98.687 35.6162C98.6725 35.6036 98.661 35.588 98.6533 35.5704C98.6456 35.5528 98.642 35.5337 98.6427 35.5145C98.6412 35.4091 98.6123 35.306 98.5587 35.2152C98.5052 35.1244 98.4289 35.0492 98.3373 34.9969C98.0948 34.8638 97.8237 34.7911 97.5471 34.785C97.2705 34.7788 96.9965 34.8394 96.7483 34.9615C96.6596 35.0068 96.5852 35.0759 96.5336 35.161C96.482 35.2462 96.4552 35.3441 96.4562 35.4437C96.4535 35.5368 96.4785 35.6285 96.5282 35.7073C96.5778 35.7861 96.6499 35.8483 96.735 35.8861C97.0357 36.0284 97.3501 36.1396 97.6734 36.2179L97.939 36.2886C98.3013 36.3947 98.6562 36.5248 99.0013 36.6779C99.2831 36.8033 99.5328 36.9908 99.7316 37.2265C99.9376 37.4843 100.043 37.8081 100.028 38.1378C100.037 38.3973 99.9804 38.6548 99.8636 38.8867C99.7468 39.1186 99.5736 39.3175 99.3598 39.4649C98.8357 39.8097 98.216 39.98 97.5893 39.9515C97.1362 39.9651 96.6844 39.8946 96.257 39.7436Z" fill="#96A5AE"/>
</g>
<defs>
<clipPath id="clip0_879_5472">
<rect width="108" height="40" fill="white"/>
</clipPath>
</defs>
</svg>
